<!doctype html>
<svg viewBox="14.164 9.231 621.992 584.214">
  <g>
    <g style="" transform="matrix(1.7083, 0, 0, 1.71525, -381.990692, -213.236679)">
      <linearGradient id="SVGID_1_" gradientUnits="userSpaceOnUse" x1="518.3395" y1="324.6672" x2="412.9241" y2="219.2518">
        <stop offset="0" style="stop-color:#262262"></stop>
        <stop offset="1" style="stop-color:#2B3990"></stop>
      </linearGradient>
      <polygon fill="url(#SVGID_1_)" points="399.1,149.9 399.1,450.1 568.1,470.3 568.1,129.7 		"></polygon>
      <linearGradient id="SVGID_2_" gradientUnits="userSpaceOnUse" x1="585.0165" y1="391.3442" x2="463.7859" y2="270.1136">
        <stop offset="0" style="stop-color:#262262"></stop>
        <stop offset="1" style="stop-color:#2B3990"></stop>
      </linearGradient>
      <path fill="url(#SVGID_2_)" d="M535.7,133.6c-4.1,9.2-7.4,21.6-8.7,38.2c-5.1,63.2-65.9,60.5-77.2,84.5
			c-11.3,24,6.6,58.1-19.4,86.6c-8.8,9.7-20.2,14.6-31.2,17v90.2l169,20.1V129.7L535.7,133.6z"></path>
      <g>
        <linearGradient id="SVGID_3_" gradientUnits="userSpaceOnUse" x1="436.684" y1="300" x2="224.9887" y2="300">
          <stop offset="0" style="stop-color:#DA1C5C"></stop>
          <stop offset="1" style="stop-color:#EE2A7B"></stop>
        </linearGradient>
        <polygon fill="url(#SVGID_3_)" points="404.3,149.9 404.3,450.1 235.4,470.3 235.4,129.7 			"></polygon>
        <linearGradient id="SVGID_4_" gradientUnits="userSpaceOnUse" x1="233.6434" y1="467.5935" x2="233.6434" y2="129.1844">
          <stop offset="0" style="stop-color:#DA1C5C"></stop>
          <stop offset="1" style="stop-color:#EE2A7B"></stop>
        </linearGradient>
        <polygon fill="url(#SVGID_4_)" points="231.9,130.3 231.9,469.7 235.4,470.3 235.4,129.7 			"></polygon>
        <linearGradient id="SVGID_5_" gradientUnits="userSpaceOnUse" x1="256.0738" y1="223.3686" x2="317.6137" y2="223.3686">
          <stop offset="0" style="stop-color:#DA1C5C"></stop>
          <stop offset="1" style="stop-color:#EE2A7B"></stop>
        </linearGradient>
        <polygon fill="url(#SVGID_5_)" points="256.1,293.7 256.1,153.1 317.6,160.4 317.6,293.7 			"></polygon>
        <linearGradient id="SVGID_6_" gradientUnits="userSpaceOnUse" x1="257.9176" y1="376.6314" x2="320.63" y2="376.6314">
          <stop offset="0" style="stop-color:#DA1C5C"></stop>
          <stop offset="1" style="stop-color:#EE2A7B"></stop>
        </linearGradient>
        <polygon fill="url(#SVGID_6_)" points="256.1,306.3 317.6,306.3 317.6,439.6 256.1,446.9 			"></polygon>
        <linearGradient id="SVGID_7_" gradientUnits="userSpaceOnUse" x1="330.2668" y1="227.7917" x2="383.6277" y2="227.7917">
          <stop offset="0" style="stop-color:#DA1C5C"></stop>
          <stop offset="1" style="stop-color:#EE2A7B"></stop>
        </linearGradient>
        <polygon fill="url(#SVGID_7_)" points="330.3,293.7 330.3,161.9 383.6,168.3 383.6,293.7 			"></polygon>
        <linearGradient id="SVGID_8_" gradientUnits="userSpaceOnUse" x1="330.7216" y1="372.2083" x2="384.0827" y2="372.2083">
          <stop offset="0" style="stop-color:#DA1C5C"></stop>
          <stop offset="1" style="stop-color:#EE2A7B"></stop>
        </linearGradient>
        <polygon fill="url(#SVGID_8_)" points="330.3,306.3 383.6,306.3 383.6,431.7 330.3,438.1 			"></polygon>
        <linearGradient id="SVGID_9_" gradientUnits="userSpaceOnUse" x1="367.5264" y1="307.5265" x2="277.2811" y2="217.2813">
          <stop offset="0" style="stop-color:#DA1C5C"></stop>
          <stop offset="1" style="stop-color:#EE2A7B"></stop>
        </linearGradient>
        <polygon fill="url(#SVGID_9_)" points="259.5,290.2 259.5,157 314.2,163.5 314.2,290.2 			"></polygon>
        <linearGradient id="SVGID_10_" gradientUnits="userSpaceOnUse" x1="434.8499" y1="308.682" x2="353.192" y2="227.0241">
          <stop offset="0" style="stop-color:#DA1C5C"></stop>
          <stop offset="1" style="stop-color:#EE2A7B"></stop>
        </linearGradient>
        <polygon fill="url(#SVGID_10_)" points="333.7,290.2 333.7,165.8 380.2,171.3 380.2,290.2 			"></polygon>
        <linearGradient id="SVGID_11_" gradientUnits="userSpaceOnUse" x1="427.6776" y1="442.7208" x2="340.8645" y2="355.9076">
          <stop offset="0" style="stop-color:#DA1C5C"></stop>
          <stop offset="1" style="stop-color:#EE2A7B"></stop>
        </linearGradient>
        <polygon fill="url(#SVGID_11_)" points="333.7,309.8 380.2,309.8 380.2,428.7 333.7,434.2 			"></polygon>
        <linearGradient id="SVGID_12_" gradientUnits="userSpaceOnUse" x1="372.3936" y1="461.9633" x2="270.6463" y2="360.2161">
          <stop offset="0" style="stop-color:#DA1C5C"></stop>
          <stop offset="1" style="stop-color:#EE2A7B"></stop>
        </linearGradient>
        <polygon fill="url(#SVGID_12_)" points="259.5,309.8 314.2,309.8 314.2,436.5 259.5,443 			"></polygon>
        <g>
          <ellipse fill="#D3D1D3" cx="259.5" cy="300" rx="7.5" ry="9.8"></ellipse>
          <path fill="#C0BEC2" d="M262.2,306.3c-4.1,0-7.5-4.4-7.5-9.8c0-1.8,0.4-3.6,1.1-5c-2.2,1.7-3.8,4.8-3.8,8.5
					c0,5.4,3.3,9.8,7.5,9.8c2.7,0,5.1-1.9,6.4-4.8C264.8,305.8,263.6,306.3,262.2,306.3z"></path>
        </g>
      </g>
      <path fill="#FFDE17" d="M462.4,197.6l5.2-0.7c0.7-0.1,0.7-1.2,0-1.3l-5.2-0.7c-1.3-0.2-2.3-1.2-2.5-2.5l-0.7-5.2
			c-0.1-0.7-1.2-0.7-1.3,0l-0.7,5.2c-0.2,1.3-1.2,2.3-2.5,2.5l-5.2,0.7c-0.7,0.1-0.7,1.2,0,1.3l5.2,0.7c1.3,0.2,2.3,1.2,2.5,2.5
			l0.7,5.2c0.1,0.7,1.2,0.7,1.3,0l0.7-5.2C460.1,198.8,461.1,197.8,462.4,197.6z"></path>
      <linearGradient id="SVGID_13_" gradientUnits="userSpaceOnUse" x1="605.4349" y1="486.259" x2="476.9667" y2="357.7908">
        <stop offset="0" style="stop-color:#262262"></stop>
        <stop offset="1" style="stop-color:#2B3990"></stop>
      </linearGradient>
      <path fill="url(#SVGID_13_)" d="M568.1,470.3v-149c-24.4,26.7-15.2,80.4-60.4,86.8c-40.1,5.7-50.9,31.3-60.3,47.8L568.1,470.3z"></path>
      <path fill="#FFDE17" d="M430.4,345.7l5.2-0.7c0.7-0.1,0.7-1.2,0-1.3l-5.2-0.7c-1.3-0.2-2.3-1.2-2.5-2.5l-0.7-5.2
			c-0.1-0.7-1.2-0.7-1.3,0l-0.7,5.2c-0.2,1.3-1.2,2.3-2.5,2.5l-5.2,0.7c-0.7,0.1-0.7,1.2,0,1.3l5.2,0.7c1.3,0.2,2.3,1.2,2.5,2.5
			l0.7,5.2c0.1,0.7,1.2,0.7,1.3,0l0.7-5.2C428,346.9,429.1,345.9,430.4,345.7z"></path>
      <path fill="#FFDE17" d="M451.1,180.8l2.9-0.4c0.4-0.1,0.4-0.7,0-0.7l-2.9-0.4c-0.7-0.1-1.3-0.7-1.4-1.4l-0.4-2.9
			c-0.1-0.4-0.7-0.4-0.7,0l-0.4,2.9c-0.1,0.7-0.7,1.3-1.4,1.4l-2.9,0.4c-0.4,0.1-0.4,0.7,0,0.7l2.9,0.4c0.7,0.1,1.3,0.7,1.4,1.4
			l0.4,2.9c0.1,0.4,0.7,0.4,0.7,0l0.4-2.9C449.8,181.4,450.4,180.9,451.1,180.8z"></path>
      <path fill="#FFDE17" d="M548.6,449.2l2.9-0.4c0.4-0.1,0.4-0.7,0-0.7l-2.9-0.4c-0.7-0.1-1.3-0.7-1.4-1.4l-0.4-2.9
			c-0.1-0.4-0.7-0.4-0.7,0l-0.4,2.9c-0.1,0.7-0.7,1.3-1.4,1.4l-2.9,0.4c-0.4,0.1-0.4,0.7,0,0.7l2.9,0.4c0.7,0.1,1.3,0.7,1.4,1.4
			l0.4,2.9c0.1,0.4,0.7,0.4,0.7,0l0.4-2.9C547.3,449.9,547.9,449.3,548.6,449.2z"></path>
      <g>
        <linearGradient id="SVGID_14_" gradientUnits="userSpaceOnUse" x1="478.3819" y1="399.3149" x2="429.3176" y2="350.2506">
          <stop offset="0" style="stop-color:#44C8F5"></stop>
          <stop offset="1" style="stop-color:#FFFFFF"></stop>
        </linearGradient>
        <circle fill="url(#SVGID_14_)" cx="456.4" cy="377.4" r="26.2"></circle>
        <g>
          <linearGradient id="SVGID_15_" gradientUnits="userSpaceOnUse" x1="467.4739" y1="368.1894" x2="462.4714" y2="363.1869">
            <stop offset="0" style="stop-color:#44C8F5"></stop>
            <stop offset="1" style="stop-color:#FFFFFF"></stop>
          </linearGradient>
          <path fill="url(#SVGID_15_)" d="M464.6,362.5c-0.1,0-0.2,0-0.3,0c1.1,0.1,1.9,1,1.9,2.2c0,1.2-1,2.2-2.2,2.2
					c-1.1,0-2-0.8-2.2-1.9c0,0.1,0,0.2,0,0.3c0,1.5,1.2,2.8,2.8,2.8c1.5,0,2.8-1.2,2.8-2.8C467.4,363.8,466.2,362.5,464.6,362.5z"></path>
          <linearGradient id="SVGID_16_" gradientUnits="userSpaceOnUse" x1="465.7312" y1="386.8266" x2="457.0677" y2="378.1631">
            <stop offset="0" style="stop-color:#44C8F5"></stop>
            <stop offset="1" style="stop-color:#FFFFFF"></stop>
          </linearGradient>
          <path fill="url(#SVGID_16_)" d="M460.9,378.4c-0.1,0-0.3,0-0.4,0c1.4,0.2,2.5,1.4,2.5,2.8c0,1.6-1.3,2.9-2.9,2.9
					c-1.5,0-2.6-1.1-2.8-2.5c0,0.1,0,0.3,0,0.4c0,2,1.6,3.7,3.7,3.7c2,0,3.7-1.6,3.7-3.7S463,378.4,460.9,378.4z"></path>
          <linearGradient id="SVGID_17_" gradientUnits="userSpaceOnUse" x1="444.4262" y1="371.5043" x2="438.2403" y2="365.3185">
            <stop offset="0" style="stop-color:#44C8F5"></stop>
            <stop offset="1" style="stop-color:#FFFFFF"></stop>
          </linearGradient>
          <path fill="url(#SVGID_17_)" d="M441,365.3c-0.1,0-0.2,0-0.3,0c1.1,0.1,1.9,1,1.9,2.2c0,1.2-1,2.2-2.2,2.2c-1.1,0-2-0.8-2.2-1.9
					c0,0.1,0,0.2,0,0.3c0,1.5,1.2,2.8,2.8,2.8c1.5,0,2.8-1.2,2.8-2.8C443.8,366.6,442.6,365.3,441,365.3z"></path>
          <linearGradient id="SVGID_18_" gradientUnits="userSpaceOnUse" x1="451.9218" y1="366.5767" x2="448.0019" y2="362.6568">
            <stop offset="0" style="stop-color:#44C8F5"></stop>
            <stop offset="1" style="stop-color:#FFFFFF"></stop>
          </linearGradient>
          <path fill="url(#SVGID_18_)" d="M449.8,362.5c-0.1,0-0.2,0-0.2,0c0.7,0.1,1.3,0.7,1.3,1.5c0,0.8-0.7,1.5-1.5,1.5
					c-0.7,0-1.4-0.6-1.5-1.3c0,0.1,0,0.1,0,0.2c0,1,0.8,1.9,1.9,1.9s1.9-0.8,1.9-1.9C451.7,363.4,450.8,362.5,449.8,362.5z"></path>
          <linearGradient id="SVGID_19_" gradientUnits="userSpaceOnUse" x1="453.3161" y1="397.755" x2="449.8893" y2="394.3282">
            <stop offset="0" style="stop-color:#44C8F5"></stop>
            <stop offset="1" style="stop-color:#FFFFFF"></stop>
          </linearGradient>
          <path fill="url(#SVGID_19_)" d="M451.7,394.2c-0.1,0-0.2,0-0.2,0c0.7,0.1,1.3,0.7,1.3,1.5c0,0.8-0.7,1.5-1.5,1.5
					c-0.7,0-1.4-0.6-1.5-1.3c0,0.1,0,0.1,0,0.2c0,1,0.8,1.9,1.9,1.9s1.9-0.8,1.9-1.9C453.6,395.1,452.7,394.2,451.7,394.2z"></path>
          <linearGradient id="SVGID_20_" gradientUnits="userSpaceOnUse" x1="474.88" y1="366.1895" x2="471.3855" y2="362.695">
            <stop offset="0" style="stop-color:#44C8F5"></stop>
            <stop offset="1" style="stop-color:#FFFFFF"></stop>
          </linearGradient>
          <path fill="url(#SVGID_20_)" d="M473.1,362.5c-0.1,0-0.2,0-0.2,0c0.7,0.1,1.3,0.7,1.3,1.5c0,0.8-0.7,1.5-1.5,1.5
					c-0.7,0-1.4-0.6-1.5-1.3c0,0.1,0,0.1,0,0.2c0,1,0.8,1.9,1.9,1.9c1,0,1.9-0.8,1.9-1.9C475,363.4,474.2,362.5,473.1,362.5z"></path>
          <linearGradient id="SVGID_21_" gradientUnits="userSpaceOnUse" x1="439.0265" y1="386.5001" x2="434.9628" y2="382.4364">
            <stop offset="0" style="stop-color:#44C8F5"></stop>
            <stop offset="1" style="stop-color:#FFFFFF"></stop>
          </linearGradient>
          <path fill="url(#SVGID_21_)" d="M437,382.5c-0.1,0-0.2,0-0.2,0c0.7,0.1,1.3,0.7,1.3,1.5c0,0.8-0.7,1.5-1.5,1.5
					c-0.7,0-1.4-0.6-1.5-1.3c0,0.1,0,0.1,0,0.2c0,1,0.8,1.9,1.9,1.9s1.9-0.8,1.9-1.9C438.8,383.4,438,382.5,437,382.5z"></path>
          <linearGradient id="SVGID_22_" gradientUnits="userSpaceOnUse" x1="459.3745" y1="356.6912" x2="455.7248" y2="353.0414">
            <stop offset="0" style="stop-color:#44C8F5"></stop>
            <stop offset="1" style="stop-color:#FFFFFF"></stop>
          </linearGradient>
          <path fill="url(#SVGID_22_)" d="M457.3,352.7c-0.1,0-0.2,0-0.2,0c0.7,0.1,1.3,0.7,1.3,1.5c0,0.8-0.7,1.5-1.5,1.5
					c-0.7,0-1.4-0.6-1.5-1.3c0,0.1,0,0.1,0,0.2c0,1,0.8,1.9,1.9,1.9c1,0,1.9-0.8,1.9-1.9C459.2,353.6,458.3,352.7,457.3,352.7z"></path>
          <linearGradient id="SVGID_23_" gradientUnits="userSpaceOnUse" x1="452.068" y1="389.6774" x2="447.6451" y2="385.2545">
            <stop offset="0" style="stop-color:#44C8F5"></stop>
            <stop offset="1" style="stop-color:#FFFFFF"></stop>
          </linearGradient>
          <path fill="url(#SVGID_23_)" d="M449.6,384.4c-0.1,0-0.2,0-0.3,0c1.1,0.1,1.9,1,1.9,2.2c0,1.2-1,2.2-2.2,2.2
					c-1.1,0-2-0.8-2.2-1.9c0,0.1,0,0.2,0,0.3c0,1.5,1.2,2.8,2.8,2.8s2.8-1.2,2.8-2.8C452.4,385.7,451.1,384.4,449.6,384.4z"></path>
          <linearGradient id="SVGID_24_" gradientUnits="userSpaceOnUse" x1="475.1982" y1="385.8745" x2="469.5862" y2="380.2624">
            <stop offset="0" style="stop-color:#44C8F5"></stop>
            <stop offset="1" style="stop-color:#FFFFFF"></stop>
          </linearGradient>
          <path fill="url(#SVGID_24_)" d="M472.2,380.1c-0.1,0-0.2,0-0.3,0c1.1,0.1,1.9,1,1.9,2.2c0,1.2-1,2.2-2.2,2.2
					c-1.1,0-2-0.8-2.2-1.9c0,0.1,0,0.2,0,0.3c0,1.5,1.2,2.8,2.8,2.8c1.5,0,2.8-1.2,2.8-2.8C475,381.4,473.8,380.1,472.2,380.1z"></path>
        </g>
        <linearGradient id="SVGID_25_" gradientUnits="userSpaceOnUse" x1="469.3265" y1="390.2595" x2="429.5402" y2="350.4731">
          <stop offset="0" style="stop-color:#44C8F5"></stop>
          <stop offset="1" style="stop-color:#FFFFFF;stop-opacity:0.3"></stop>
        </linearGradient>
        <path fill="url(#SVGID_25_)" d="M465.2,352.6c6.6,4.3,11,11.8,11,20.3c0,13.4-10.8,24.2-24.2,24.2c-8.5,0-16-4.4-20.3-11
				c3.6,10.2,13.3,17.5,24.7,17.5c14.5,0,26.2-11.7,26.2-26.2C482.7,366,475.4,356.3,465.2,352.6z"></path>
      </g>
      <g>
        <defs>
          <polygon id="SVGID_26_" points="464.6,172.4 464.6,300.2 568.1,308.8 568.1,163.9 				"></polygon>
        </defs>
        <clipPath id="SVGID_27_">
          <polygon points="464.6,172.4 464.6,300.2 568.1,308.8 568.1,163.9 				" transform="matrix(1, 0, 0, 1, 0, 0)" overflow="visible"></polygon>
        </clipPath>
        <g clip-path="url(#SVGID_27_)">
          <linearGradient id="SVGID_28_" gradientUnits="userSpaceOnUse" x1="570.9247" y1="274.9654" x2="473.9721" y2="178.0127">
            <stop offset="0" style="stop-color:#A154A1"></stop>
            <stop offset="1" style="stop-color:#B37AB4"></stop>
          </linearGradient>
          <circle fill="url(#SVGID_28_)" cx="531.9" cy="235.9" r="64.1"></circle>
          <linearGradient id="SVGID_29_" gradientUnits="userSpaceOnUse" x1="583.1171" y1="275.748" x2="495.5359" y2="188.1668">
            <stop offset="0" style="stop-color:#7F3F98"></stop>
            <stop offset="1" style="stop-color:#A154A1"></stop>
          </linearGradient>
          <path fill="url(#SVGID_29_)" d="M535.5,171.9c-3.1,7.3-10.2,15.5-23,24.3c-40,27.5-27.6,59.4,0,51.8s16.2-39.5,39.5-46.5
					c23.2-7,35.7,47.6,0,58.4c-22.3,6.8-25.1,26.3-24,39.9c1.3,0.1,2.6,0.1,3.8,0.1c35.4,0,64.1-28.7,64.1-64.1
					C596,201.7,569.2,173.8,535.5,171.9z"></path>
          <linearGradient id="SVGID_30_" gradientUnits="userSpaceOnUse" x1="563.6666" y1="231.0444" x2="545.5023" y2="212.8801">
            <stop offset="0" style="stop-color:#7F3F98"></stop>
            <stop offset="1" style="stop-color:#A154A1"></stop>
          </linearGradient>
          <path fill="url(#SVGID_30_)" d="M555.5,208.5c-8.5-0.2-18,19.8-8,23.9C557.4,236.4,573,209,555.5,208.5z"></path>
          <linearGradient id="SVGID_31_" gradientUnits="userSpaceOnUse" x1="512.628" y1="205.6748" x2="495.317" y2="188.3638">
            <stop offset="0" style="stop-color:#7F3F98"></stop>
            <stop offset="1" style="stop-color:#A154A1"></stop>
          </linearGradient>
          <path fill="url(#SVGID_31_)" d="M475,206.5c10.6-4.3,24.8-6.3,36-15.7c6-5.1,7.8-11.4,7.7-17.6
					C499.6,177.2,483.7,189.7,475,206.5z"></path>
          <linearGradient id="SVGID_32_" gradientUnits="userSpaceOnUse" x1="572.732" y1="239.9998" x2="559.338" y2="226.6058">
            <stop offset="0" style="stop-color:#7F3F98"></stop>
            <stop offset="1" style="stop-color:#A154A1"></stop>
          </linearGradient>
          <path fill="url(#SVGID_32_)" d="M562.7,230.5c-2.9,4.9,2.9,10.4,5.3,5.3C570.3,230.6,566.7,223.8,562.7,230.5z"></path>
          <linearGradient id="SVGID_33_" gradientUnits="userSpaceOnUse" x1="502.534" y1="279.202" x2="467.9203" y2="244.5883">
            <stop offset="0" style="stop-color:#7F3F98"></stop>
            <stop offset="1" style="stop-color:#A154A1"></stop>
          </linearGradient>
          <path fill="url(#SVGID_33_)" d="M494.4,256c-14.8-4.1-23.1-11.5-26.5-21.6c0,0.5,0,1,0,1.5c0,19.1,8.4,36.2,21.6,48
					C506.2,281.6,510.7,260.6,494.4,256z"></path>
        </g>
      </g>
    </g>
  </g>
</svg>