<?xml version="1.0" standalone="no"?>
<!DOCTYPE svg PUBLIC "-//W3C//DTD SVG 1.1//EN" "http://www.w3.org/Graphics/SVG/1.1/DTD/svg11.dtd">
<!--Generator: Xara Designer (www.xara.com), SVG filter version: 6.3.0.23-->
<svg fill="none" fill-rule="evenodd" stroke="none" stroke-width="0.501" stroke-linejoin="bevel" stroke-miterlimit="10" font-family="Times New Roman" font-size="16" style="font-variant-ligatures:none" xmlns:xlink="http://www.w3.org/1999/xlink" xmlns="http://www.w3.org/2000/svg" version="1.1" overflow="visible" width="300px" height="300px">
 <defs>
<linearGradient id="a" y1="100%">
<stop stop-color="#3057c8" offset="0"/>
<stop stop-color="#7b94de" offset=".5"/>
<stop stop-color="#fff" offset="1"/>
</linearGradient>
<radialGradient id="b" cx="200" cy="200" r="50" gradientUnits="userSpaceOnUse">
<stop stop-color="#fff" offset="0"/>
<stop stop-color="#75a0e0" offset=".5"/>
<stop stop-color="#5087d8" offset="1"/>
</radialGradient>
</defs>
<style type="text/css">#c2 circle{fill:url(#a)}#c0{fill:url(#b)}</style>


 <g>
  <circle cx="150" cy="150" r="150" fill="white"/>
 <path d="M 65.357,90.781 C 57.928,101.544 53.082,113.201 50.673,125.099 L 50.687,125.098 L 46.443,125.177 C 43.409,125.238 40.859,127.191 39.512,130.098 C 38.069,132.112 36.819,134.381 35.811,136.893 C 30.425,150.233 33.391,166.28 42.218,176.595 C 43.892,179.447 46.664,181.312 49.696,181.264 L 57.414,181.111 C 62.117,181.02 65.661,176.366 65.331,170.696 L 63.272,135.144 C 63.161,133.252 62.634,131.488 61.805,129.98 C 63.709,118.518 68.145,107.245 75.277,96.91 C 102.291,57.766 157.792,46.738 199.17,72.287 C 221.15,85.863 234.745,107.051 238.609,129.803 C 237.723,131.35 237.157,133.18 237.044,135.148 L 234.983,170.7 C 234.651,176.367 238.197,181.026 242.898,181.115 L 250.619,181.265 C 253.651,181.315 256.426,179.451 258.101,176.599 C 266.92,166.285 269.889,150.237 264.504,136.897 C 263.489,134.387 262.241,132.114 260.802,130.102 C 259.457,127.195 256.904,125.239 253.872,125.181 L 249.765,125.104 C 244.755,100.458 229.599,77.689 205.647,62.892 C 158.8,33.962 95.944,46.45 65.357,90.781 Z M 249.722,125.104 L 249.764,125.104 L 249.722,125.104 Z" stroke="none" stroke-linejoin="miter" fill="#7f4100" stroke-width="2.256" marker-start="none" marker-end="none"/>
 <path d="M 61.481,87.335 C 53.713,98.591 48.646,110.78 46.128,123.221 L 46.143,123.221 L 41.703,123.304 C 38.529,123.367 35.865,125.408 34.455,128.453 C 32.947,130.555 31.644,132.928 30.586,135.554 C 24.953,149.503 28.056,166.285 37.284,177.07 C 39.037,180.049 41.935,182.003 45.105,181.95 L 53.176,181.796 C 58.093,181.7 61.801,176.833 61.457,170.901 L 59.301,133.723 C 59.186,131.746 58.635,129.902 57.768,128.325 C 59.761,116.339 64.4,104.551 71.857,93.743 C 100.105,52.813 158.141,41.278 201.41,67.997 C 224.394,82.192 238.609,104.349 242.65,128.141 C 241.723,129.759 241.132,131.671 241.014,133.727 L 238.86,170.905 C 238.513,176.834 242.219,181.706 247.137,181.8 L 255.21,181.951 C 258.382,182.007 261.281,180.055 263.031,177.074 C 272.255,166.291 275.359,149.507 269.728,135.558 C 268.669,132.933 267.366,130.556 265.857,128.457 C 264.451,125.413 261.78,123.368 258.608,123.307 L 254.315,123.226 C 249.076,97.455 233.229,73.647 208.183,58.175 C 159.191,27.92 93.467,40.982 61.481,87.335 Z M 254.271,123.226 L 254.315,123.226 L 254.271,123.226 Z" stroke="none" stroke-linejoin="miter" fill="#ff8200" stroke-width="2.361" marker-start="none" marker-end="none"/>  
  <path d="M 44.713,89.888 C 58.355,66.226 79.787,47.592 105.521,37.522" fill="none" stroke="#6092dc" stroke-width="6.773" stroke-linejoin="round" stroke-linecap="round"/>
  <path d="M 205.438,42.94 C 226.653,54.028 244.181,71.232 255.67,92.218" fill="none" stroke="#6092dc" stroke-width="6.773" stroke-linejoin="round" stroke-linecap="round"/>
  <path d="M 255.451,66.806 C 247.511,56.862 238.196,48.061 227.794,40.694" fill="none" stroke="#aec6ec" stroke-width="6.666" stroke-linejoin="round" stroke-linecap="round"/>
  <path d="M 84.491,32.79 C 69.969,40.842 57.086,51.497 46.463,64.12" fill="none" stroke="#aec6ec" stroke-width="6.666" stroke-linejoin="round" stroke-linecap="round"/>
   <g id="letters" fill-rule="nonzero" stroke-linejoin="round" stroke-linecap="round" stroke-width="0.266" fill="#18419d">
    <path d="M 48.468,196.018 L 51.604,202.011 C 52.056,202.876 52.6,203.531 53.243,203.981 C 53.884,204.431 54.597,204.652 55.38,204.651 C 56.162,204.647 56.987,204.42 57.849,203.973 L 61.17,202.235 C 62.077,201.758 62.769,201.192 63.248,200.536 C 63.73,199.881 63.974,199.155 63.985,198.365 C 63.998,197.572 63.777,196.748 63.33,195.882 L 60.194,189.886 L 63.692,188.057 L 66.664,193.743 C 67.559,195.451 68.036,197.062 68.102,198.581 C 68.168,200.098 67.815,201.465 67.041,202.685 C 66.267,203.901 65.11,204.916 63.563,205.721 L 59.772,207.702 C 58.181,208.537 56.651,208.929 55.182,208.885 C 53.712,208.839 52.36,208.364 51.13,207.456 C 49.897,206.549 48.833,205.241 47.938,203.531 L 44.967,197.846 L 48.468,196.018 Z M 62.657,186.073 L 64.601,189.796 L 32.17,206.754 L 30.22,203.032 L 62.657,186.073 Z M 49.19,203.475 L 51.996,206.346 L 38.966,219.749 L 36.786,215.581 L 49.19,203.475 Z" marker-start="none" marker-end="none"/>
    <path d="M 76.926,209.32 L 79.768,212.649 L 57.434,242.821 L 54.463,239.34 L 73.965,214.724 L 46.59,230.118 L 43.622,226.635 L 76.926,209.32 Z M 56.319,222.445 L 63.876,231.305 L 60.872,233.869 L 53.314,225.011 L 56.319,222.445 Z" marker-start="none" marker-end="none"/>
    <path d="M 69.409,247.902 L 75.687,252.486 C 76.39,253.002 77.085,253.186 77.772,253.043 C 78.457,252.901 79.081,252.443 79.643,251.669 L 93.022,233.347 C 93.586,232.573 93.831,231.843 93.76,231.141 C 93.688,230.446 93.297,229.841 92.597,229.326 L 86.318,224.742 L 88.645,221.554 L 94.802,226.049 C 96.022,226.939 96.894,227.917 97.42,228.988 C 97.948,230.059 98.122,231.18 97.939,232.356 C 97.756,233.53 97.216,234.726 96.327,235.946 L 83.143,254.007 C 82.251,255.224 81.268,256.101 80.193,256.636 C 79.12,257.169 77.993,257.347 76.813,257.17 C 75.632,256.996 74.434,256.463 73.215,255.569 L 67.079,251.093 L 69.409,247.902 Z M 86.616,220.07 L 90.007,222.549 L 68.441,252.087 L 65.047,249.61 L 86.616,220.07 Z" marker-start="none" marker-end="none"/>
    <path d="M 92.899,267.277 L 89.142,265.401 L 105.497,232.688 L 109.257,234.564 L 92.899,267.277 Z" marker-start="none" marker-end="none"/>
    <path d="M 112.561,275.238 C 110.724,274.7 109.257,273.894 108.155,272.821 C 107.054,271.744 106.355,270.45 106.057,268.93 C 105.761,267.407 105.884,265.715 106.43,263.849 L 111.752,245.67 C 112.3,243.802 113.107,242.31 114.177,241.191 C 115.246,240.07 116.535,239.359 118.037,239.059 C 119.541,238.754 121.211,238.873 123.044,239.41 C 124.883,239.947 126.35,240.746 127.452,241.814 C 128.556,242.88 129.256,244.172 129.555,245.692 C 129.853,247.21 129.729,248.905 129.18,250.771 L 123.861,268.948 C 123.315,270.82 122.506,272.309 121.433,273.43 C 120.365,274.547 119.075,275.266 117.573,275.575 C 116.065,275.886 114.394,275.771 112.561,275.238 Z M 113.711,271.3 C 114.709,271.59 115.612,271.653 116.421,271.489 C 117.226,271.324 117.918,270.94 118.486,270.338 C 119.055,269.74 119.488,268.939 119.778,267.94 L 125.193,249.448 C 125.485,248.447 125.555,247.545 125.397,246.728 C 125.244,245.914 124.872,245.219 124.278,244.644 C 123.687,244.07 122.892,243.637 121.894,243.343 C 120.914,243.058 120.018,242.997 119.21,243.163 C 118.399,243.328 117.707,243.708 117.13,244.311 C 116.552,244.907 116.121,245.705 115.825,246.707 L 110.413,265.198 C 110.121,266.198 110.057,267.103 110.22,267.919 C 110.382,268.736 110.76,269.431 111.349,270.008 C 111.943,270.579 112.729,271.013 113.711,271.3 Z" marker-start="none" marker-end="none"/>
    <path d="M 152.822,246.577 L 157.015,246.349 L 158.817,279.882 L 154.621,280.108 L 152.822,246.577 Z M 145.882,243.952 L 163.612,242.999 L 163.824,246.944 L 146.091,247.894 L 145.882,243.952 Z" marker-start="none" marker-end="none"/>
    <path d="M 183.319,276.074 C 181.442,276.585 179.78,276.704 178.333,276.431 C 176.883,276.155 175.667,275.486 174.682,274.425 C 173.698,273.362 172.96,271.925 172.465,270.115 L 171.991,268.367 L 176.016,267.271 L 176.474,268.94 C 176.881,270.432 177.57,271.454 178.547,272.003 C 179.523,272.553 180.762,272.626 182.267,272.213 C 183.739,271.814 184.746,271.132 185.281,270.167 C 185.818,269.204 185.882,267.979 185.479,266.489 L 184.771,263.892 C 184.503,262.905 184.043,262.125 183.388,261.543 C 182.737,260.969 181.991,260.543 181.164,260.274 C 180.333,260.005 179.255,259.757 177.922,259.528 C 177.888,259.52 177.845,259.517 177.801,259.511 C 177.756,259.507 177.715,259.5 177.679,259.492 L 177.292,259.414 C 175.557,259.104 174.124,258.756 172.994,258.367 C 171.86,257.984 170.807,257.319 169.832,256.376 C 168.854,255.435 168.134,254.121 167.677,252.439 L 167.16,250.55 C 166.678,248.767 166.592,247.182 166.907,245.792 C 167.223,244.402 167.936,243.226 169.038,242.264 C 170.136,241.303 171.623,240.57 173.48,240.065 C 175.292,239.568 176.903,239.465 178.307,239.753 C 179.717,240.037 180.9,240.71 181.86,241.769 C 182.816,242.829 183.538,244.257 184.029,246.053 L 184.531,247.898 L 180.505,248.995 L 180.027,247.246 C 179.621,245.763 178.955,244.734 178.026,244.169 C 177.098,243.604 175.932,243.514 174.527,243.9 C 173.034,244.307 172.014,244.974 171.451,245.909 C 170.889,246.847 170.795,248.01 171.177,249.401 L 171.71,251.365 C 171.98,252.352 172.448,253.125 173.11,253.683 C 173.776,254.24 174.524,254.638 175.351,254.872 C 176.18,255.105 177.288,255.349 178.678,255.595 C 178.818,255.609 178.953,255.63 179.072,255.656 C 179.19,255.685 179.328,255.706 179.467,255.72 C 179.539,255.732 179.618,255.744 179.7,255.759 C 179.783,255.772 179.861,255.785 179.933,255.803 C 181.482,256.072 182.788,256.407 183.846,256.809 C 184.9,257.205 185.87,257.878 186.765,258.814 C 187.653,259.753 188.328,261.065 188.787,262.749 L 189.527,265.467 C 190.023,267.277 190.118,268.884 189.813,270.29 C 189.506,271.691 188.816,272.883 187.734,273.852 C 186.65,274.824 185.181,275.566 183.319,276.074 Z" marker-start="none" marker-end="none"/>
    <path d="M 185.541,236.599 L 189.29,234.703 L 205.8,267.338 L 202.053,269.232 L 185.541,236.599 Z M 202.492,264.586 L 214.275,258.623 L 216.058,262.147 L 204.274,268.11 L 202.492,264.586 Z M 195.178,250.129 L 205.837,244.737 L 207.623,248.261 L 196.959,253.652 L 195.178,250.129 Z M 187.762,235.475 L 199.546,229.512 L 201.33,233.035 L 189.546,238.996 L 187.762,235.475 Z" marker-start="none" marker-end="none"/>
    <path d="M 222.288,238.755 L 231.819,250.781 L 228.525,253.39 L 218.996,241.368 L 199.854,229.445 L 203.205,226.791 L 217.617,236.265 L 211.487,220.227 L 214.838,217.571 L 222.288,238.755 Z" marker-start="none" marker-end="none"/>
    <path d="M 249.653,233.59 C 248.431,235.063 247.11,236.092 245.688,236.674 C 244.266,237.26 242.797,237.388 241.286,237.059 C 239.772,236.728 238.265,235.942 236.769,234.701 L 222.191,222.606 C 220.695,221.361 219.646,220.03 219.042,218.602 C 218.438,217.175 218.297,215.713 218.616,214.213 C 218.933,212.71 219.702,211.225 220.924,209.755 C 222.146,208.284 223.465,207.25 224.88,206.662 C 226.297,206.07 227.76,205.94 229.273,206.271 C 230.788,206.602 232.293,207.386 233.79,208.626 L 248.366,220.725 C 249.864,221.966 250.913,223.301 251.517,224.729 C 252.118,226.153 252.266,227.621 251.952,229.125 C 251.64,230.631 250.874,232.12 249.653,233.59 Z M 246.495,230.971 C 247.162,230.172 247.576,229.367 247.744,228.562 C 247.914,227.752 247.837,226.967 247.51,226.206 C 247.183,225.445 246.621,224.733 245.818,224.07 L 230.993,211.765 C 230.191,211.1 229.386,210.679 228.577,210.5 C 227.767,210.319 226.982,210.386 226.22,210.701 C 225.457,211.015 224.745,211.572 224.079,212.372 C 223.426,213.16 223.016,213.957 222.847,214.766 C 222.679,215.572 222.755,216.362 223.078,217.129 C 223.398,217.897 223.959,218.612 224.759,219.277 L 239.587,231.581 C 240.389,232.242 241.194,232.664 242.008,232.838 C 242.822,233.013 243.611,232.941 244.373,232.626 C 245.135,232.31 245.844,231.761 246.495,230.971 Z" marker-start="none" marker-end="none"/>
    <path d="M 245.096,206.125 L 248.119,200.072 C 248.557,199.201 248.765,198.374 248.755,197.59 C 248.745,196.808 248.509,196.097 248.047,195.465 C 247.586,194.831 246.921,194.298 246.052,193.861 L 242.696,192.187 C 241.783,191.727 240.919,191.5 240.105,191.496 C 239.292,191.492 238.56,191.715 237.913,192.168 C 237.262,192.622 236.72,193.286 236.287,194.154 L 233.261,200.205 L 229.733,198.44 L 232.598,192.704 C 233.459,190.976 234.488,189.644 235.678,188.704 C 236.874,187.765 238.188,187.251 239.627,187.163 C 241.067,187.075 242.57,187.425 244.128,188.204 L 247.949,190.116 C 249.555,190.92 250.771,191.928 251.598,193.145 C 252.424,194.368 252.825,195.741 252.813,197.27 C 252.797,198.8 252.358,200.427 251.495,202.153 L 248.627,207.889 L 245.096,206.125 Z M 228.727,200.443 L 230.606,196.683 L 263.342,213.053 L 261.463,216.811 L 228.727,200.443 Z M 250.72,201.176 L 251.407,197.215 L 269.899,199.936 L 267.798,204.145 L 250.72,201.176 Z" marker-start="none" marker-end="none"/>
   </g> 
  <g id="Group_4" stroke="none">
  <circle cx="139.3" cy="263.5" r="5.1" fill="#7f4100"/>
  <circle cx="139.3" cy="260.5" r="5" fill="#ff8200"/>
  </g>
 </g>

 
 <g id="sello" transform="translate(70,68) scale(0.4,0.4)">
<circle cx="200" cy="200" r="200" fill="#18419d"/>
<circle cx="200" cy="200" r="142" fill="#aec6ec"/>
<g id="c2">
<circle cx="286" cy="51" r="15"/>
<circle cx="349" cy="114" r="15"/>
<circle cx="372" cy="200" r="15"/>
<circle cx="349" cy="286" r="15"/>
<circle cx="286" cy="349" r="15"/>
<circle cx="200" cy="372" r="15"/>
<circle cx="114" cy="349" r="15"/>
<circle cx="51" cy="286" r="15"/>
<circle cx="28" cy="200" r="15"/>
<circle cx="51" cy="114" r="15"/>
<circle cx="114" cy="51" r="15"/>
<circle cx="200" cy="28" r="15"/>
</g>
<path d="m314.3 266h-228.6l114.3-198z" fill="#fff" stroke="#59c" stroke-width="1.5"/>
<circle id="c0" cx="200" cy="200" r="48"/>
</g>

</svg>
