<?xml version="1.0" encoding="UTF-8" standalone="no"?>
<!-- Created with Inkscape (http://www.inkscape.org/) -->

<svg
   xmlns:dc="http://purl.org/dc/elements/1.1/"
   xmlns:cc="http://creativecommons.org/ns#"
   xmlns:rdf="http://www.w3.org/1999/02/22-rdf-syntax-ns#"
   xmlns:svg="http://www.w3.org/2000/svg"
   xmlns="http://www.w3.org/2000/svg"
   xmlns:sodipodi="http://sodipodi.sourceforge.net/DTD/sodipodi-0.dtd"
   xmlns:inkscape="http://www.inkscape.org/namespaces/inkscape"
   width="210mm"
   height="297mm"
   viewBox="0 0 210 297"
   version="1.1"
   id="svg8"
   inkscape:version="0.92.4 (5da689c313, 2019-01-14)"
   sodipodi:docname="slide1.svg">
  <defs
     id="defs2" />
  <sodipodi:namedview
     id="base"
     pagecolor="#ffffff"
     bordercolor="#666666"
     borderopacity="1.0"
     inkscape:pageopacity="0.0"
     inkscape:pageshadow="2"
     inkscape:zoom="0.7"
     inkscape:cx="435.39105"
     inkscape:cy="645.1711"
     inkscape:document-units="mm"
     inkscape:current-layer="layer1"
     showgrid="false"
     inkscape:window-width="2560"
     inkscape:window-height="1371"
     inkscape:window-x="-9"
     inkscape:window-y="-9"
     inkscape:window-maximized="1" />
  <metadata
     id="metadata5">
    <rdf:RDF>
      <cc:Work
         rdf:about="">
        <dc:format>image/svg+xml</dc:format>
        <dc:type
           rdf:resource="http://purl.org/dc/dcmitype/StillImage" />
        <dc:title></dc:title>
      </cc:Work>
    </rdf:RDF>
  </metadata>
  <g
     inkscape:label="Capa 1"
     inkscape:groupmode="layer"
     id="layer1">
    <path
       style="opacity:1;fill:#3057c8;fill-opacity:1;fill-rule:evenodd;stroke-width:0.98001665;stroke-miterlimit:4;stroke-dasharray:none"
       id="path24"
       d="m 55.649452,83.310075 c 3.298555,-1.627322 6.82475,-2.768383 10.344967,-3.812452 2.687871,-0.626113 5.258539,-1.641451 7.945782,-2.264484 1.683205,-0.362427 3.418946,-0.331253 5.121357,-0.523404 0.457303,-0.05161 0.90906,-0.144132 1.363591,-0.216199 2.384081,-0.476502 4.787378,-0.831924 7.212377,-1.001837 0.334598,-0.01818 0.670285,-0.02201 1.00379,-0.05457 0.697129,-0.06807 1.386689,-0.199313 2.081427,-0.288552 1.146571,-0.147275 2.295112,-0.245832 3.446951,-0.34041 1.805538,-0.133244 3.615222,-0.178797 5.425022,-0.193006 2.535284,0.0072 5.070564,0.01651 7.605854,0.02299 2.50045,-0.0042 5.00089,-0.0097 7.50134,-0.0096 2.17301,-0.0042 4.346,0.0013 6.51901,-0.0021 1.78881,-0.0078 3.57755,-0.0098 5.36635,-5.6e-5 2.40591,0.04666 4.8159,-0.06443 7.21964,0.0542 0.94448,0.08919 1.92179,0.109747 2.85372,0.306499 0.9223,0.194717 1.83253,0.563705 2.71739,0.88097 1.56573,0.609235 3.08773,1.446218 4.30769,2.612572 1.00207,0.955276 1.402,1.956957 1.54015,3.311139 -0.0238,1.063016 -0.24382,2.179167 -0.88824,3.055842 -0.17336,0.235852 -0.38531,0.440754 -0.57796,0.661133 -3.1449,2.951864 -7.12091,4.813824 -11.00895,6.602973 -1.95442,1.074809 -3.71884,1.639951 -5.92028,1.89416 -0.38063,0.07772 -0.76412,0.142553 -1.14189,0.233164 -1.27415,0.305607 -2.52493,0.708502 -3.80277,1.001927 -2.4575,0.564306 0.0193,-0.09843 -2.45365,0.595075 -2.89131,0.812191 -5.89637,1.135036 -8.8804,1.390306 -0.60512,0.03579 -1.21159,0.05333 -1.81535,0.10736 -0.73711,0.06597 -3.11425,0.383783 -3.84314,0.47295 -1.84486,0.225685 -3.69176,0.404958 -5.542925,0.568778 -2.510002,0.22257 -5.029227,0.295407 -7.547869,0.314166 -2.363402,0.0013 -4.726803,-0.0016 -7.090207,0.0028 -1.787993,0.0049 -3.575981,-0.0021 -5.363971,-0.0026 -2.007561,-0.0032 -4.015129,-0.004 -6.022687,-0.0019 -0.869199,7.93e-4 -1.738394,0.0034 -2.607588,0.0057 -0.240749,5.29e-4 -0.483071,0.02977 -0.722249,0.0024 -0.307263,-0.03527 -1.262144,-0.299521 -1.566108,-0.380055 -1.622002,-0.340307 -3.213727,-0.764342 -4.77779,-1.309344 -1.463771,-0.391869 -2.808698,-1.106696 -4.217972,-1.646973 -1.480823,-0.672351 -2.978586,-1.311701 -4.432067,-2.042033 -1.277776,-0.629136 -2.539574,-1.324551 -3.656026,-2.215634 -0.598183,-0.542271 -0.312073,-0.255246 -0.857419,-0.861988 0,0 4.797433,-2.910607 4.797433,-2.910607 v 0 c 0.511371,0.548306 0.242927,0.28602 0.805661,0.786524 1.100619,0.853633 2.337716,1.510146 3.585194,2.12212 1.449769,0.701188 2.90779,1.387919 4.392991,2.011119 1.399527,0.559718 2.768434,1.203973 4.222081,1.619131 1.548299,0.542604 3.139255,0.919797 4.740952,1.27146 1.631873,0.376449 3.137051,0.26742 4.800124,0.273582 2.009113,0.0021 4.018237,0.0011 6.027354,-0.0013 1.786429,5.29e-4 3.572869,-0.0047 5.359278,0.007 2.35881,0.01209 4.717724,0.02254 7.076503,-0.0011 2.493859,-0.03202 4.988327,-0.09739 7.474237,-0.313322 3.74115,-0.326999 7.4561,-0.885542 11.20177,-1.151379 2.98091,-0.287171 5.97308,-0.649926 8.8564,-1.491536 2.475,-0.640572 4.96284,-1.260248 7.46258,-1.789618 2.05364,-0.322612 3.96736,-1.01868 5.79976,-2.008552 0.38712,-0.177634 0.77511,-0.353344 1.16134,-0.532903 0.37653,-0.175056 1.47493,-0.757441 1.12691,-0.530931 -1.15033,0.748686 -2.35017,1.418841 -3.54063,2.101894 -0.37957,0.217784 0.74779,-0.455787 1.10708,-0.705606 0.32027,-0.222682 0.62669,-0.46504 0.92975,-0.710623 0.24948,-0.202166 0.48471,-0.421315 0.72706,-0.631971 1.12396,-1.030658 1.4864,-1.759979 1.64476,-3.277632 -0.0524,-1.177964 -0.44398,-2.143289 -1.32958,-2.952345 -1.19017,-1.095261 -2.64433,-1.881833 -4.1602,-2.431523 -1.77775,-0.614784 -3.57197,-1.05741 -5.46962,-1.05826 -2.39933,-0.09397 -4.80185,-0.02212 -7.20244,-0.03621 -1.78878,0.0096 -3.5775,0.0079 -5.36629,1.1e-5 -2.17095,-0.0035 -4.34189,0.0024 -6.51284,-0.0026 -2.48903,-7.94e-4 -4.97804,-0.008 -7.46706,-0.01561 -2.55494,0.0032 -5.109982,0.0016 -7.664811,0.02689 -1.792426,0.02019 -3.585528,0.06321 -5.373053,0.206158 -2.185077,0.187368 -4.350268,0.53993 -6.538092,0.682639 -2.407222,0.198569 -4.79026,0.573548 -7.164591,1.014687 -2.160532,0.29396 -4.353203,0.351814 -6.491126,0.805596 -2.638034,0.647546 -5.190712,1.596877 -7.836453,2.220595 -3.550536,1.079375 -7.102893,2.258089 -10.401805,3.978177 0,0 4.380473,-3.503965 4.380473,-3.503965 z"
       inkscape:connector-curvature="0" />
    <path
       style="opacity:1;fill:#3057c8;fill-opacity:1;fill-rule:evenodd;stroke-width:0.98001665;stroke-miterlimit:4;stroke-dasharray:none"
       id="path26"
       d="m 70.665305,78.765367 c 1.006522,-2.000308 2.032045,-3.98467 2.959264,-6.023586 0.755435,-1.657043 1.731311,-3.205718 2.839836,-4.647192 1.045763,-1.28588 2.206985,-2.470435 3.371667,-3.647355 2.830799,-2.801247 6.498794,-4.519866 10.020221,-6.297464 1.547342,-0.870876 3.214481,-1.355654 4.96171,-1.594205 1.54351,-0.121494 3.093461,-0.106116 4.640495,-0.09976 1.428562,0.0065 2.857112,0.01148 4.285692,0.01405 1.54105,-0.03844 3.07846,0.07525 4.57815,0.435404 0.88005,0.250036 1.78817,0.419444 2.63366,0.780616 0.52337,0.223573 1.02404,0.497012 1.53887,0.739603 1.70863,0.988999 3.24321,2.216663 4.74885,3.483755 1.52778,1.249905 3.0453,2.518447 4.3795,3.977087 0.97275,1.028788 1.94368,2.06742 2.76005,3.226631 0.60781,0.74554 0.91377,1.607047 1.18227,2.512848 0,0 -4.92699,2.692104 -4.92699,2.692104 v 0 c -0.25164,-0.847709 -0.51153,-1.659975 -1.08719,-2.357747 -0.79896,-1.140383 -1.75674,-2.160992 -2.71103,-3.171788 -1.31743,-1.437611 -2.7884,-2.718673 -4.31311,-3.932028 -1.47555,-1.235165 -3.00037,-2.418279 -4.69103,-3.349213 -1.32356,-0.61967 -2.67206,-1.123759 -4.11034,-1.413025 -1.48797,-0.300527 -2.99938,-0.365599 -4.515409,-0.332074 -1.42553,-0.0048 -2.851044,-0.01331 -4.276566,-0.02013 -1.532803,7.93e-4 -3.073014,-0.02151 -4.596384,0.17468 -1.701287,0.292505 -3.303897,0.868159 -4.818968,1.704142 -2.428271,1.212297 -1.029332,0.546063 2.736517,-1.733434 0.319238,-0.193236 -0.657405,0.354753 -0.971799,0.555776 -0.831368,0.531574 -1.561877,1.195567 -2.283563,1.863108 -1.163066,1.168072 -2.329521,2.335824 -3.399848,3.590962 -1.13647,1.397 -2.134047,2.911094 -2.917023,4.535276 -0.934712,2.026902 -1.932361,4.01406 -2.906752,6.020697 0,0 -5.11075,2.312265 -5.11075,2.312265 z"
       inkscape:connector-curvature="0" />
    <path
       style="opacity:1;fill:#3057c8;fill-opacity:1;fill-rule:evenodd;stroke-width:0.98001665;stroke-miterlimit:4;stroke-dasharray:none"
       id="path28"
       d="m 79.006778,87.512619 c 0.218999,-0.227944 0.419714,-0.474985 0.656995,-0.683829 0.295169,-0.259794 0.599025,-0.515268 0.935868,-0.718134 2.0266,-1.220531 4.630005,-3.030078 7.144216,-3.890677 1.119378,-0.383156 1.586907,-0.439066 2.748322,-0.675913 2.155249,-0.588608 4.307753,-1.160885 6.519924,-1.486773 1.565156,-0.17726 3.142147,-0.157384 4.714517,-0.160906 1.48732,-2.54e-4 2.97462,0.0067 4.46194,0.0071 1.81275,-0.111292 3.46706,0.454268 5.07984,1.21445 1.34471,0.656987 2.68364,1.326095 4.03553,1.967955 0.90802,0.613685 2.0027,0.719453 2.9718,1.177393 0.5265,0.477481 0.57915,1.050767 -0.12782,1.463003 -1.93696,1.129451 -3.89093,2.237576 -5.91151,3.209555 -0.50736,0.244057 -1.09247,0.273119 -1.63571,0.42096 -0.62325,0.169616 -1.24232,0.354221 -1.86349,0.531331 -3.33823,0.90606 -6.7555,1.489956 -10.192218,1.858261 -1.805183,0.183446 -3.622254,0.164314 -5.434343,0.164481 -1.652466,0.107114 -3.303437,0.227502 -4.957678,0.305343 -1.369481,0.04895 -2.743449,0.09949 -4.110797,-0.0037 -1.5597,-0.267679 -2.959076,-1.000111 -4.272081,-1.851673 -0.182057,-0.150109 -0.364112,-0.300215 -0.546169,-0.450323 0,0 4.74458,-2.979066 4.74458,-2.979066 v 0 c 0.170907,0.133255 0.341815,0.266507 0.512722,0.399762 1.259896,0.791289 2.601892,1.472099 4.106151,1.618623 1.359712,0.05268 2.720129,0.0071 4.079425,-0.04554 1.655882,-0.07713 3.307861,-0.217353 4.964428,-0.277585 1.79139,0.0016 3.58589,-0.0074 5.36986,-0.191598 3.401,-0.368766 6.78202,-0.945179 10.07481,-1.888503 0.62822,-0.181589 1.25792,-0.358103 1.88465,-0.544767 0.54562,-0.162504 2.06173,-0.876411 1.63226,-0.502695 -1.08337,0.942721 -2.47109,1.467049 -3.6623,2.269194 -0.17829,0.12006 0.39922,-0.164648 0.60868,-0.212913 0.0873,-0.02011 0.23819,0.09506 0.26857,0.01077 0.0315,-0.08746 -0.13589,-0.126928 -0.20383,-0.190391 -1.00259,-0.384874 -2.0654,-0.604449 -2.98135,-1.201677 -1.33293,-0.659955 -2.6679,-1.315423 -4.00037,-1.97631 -1.62276,-0.72023 -3.17796,-1.112782 -4.96795,-1.001789 -1.48207,-0.0072 -2.964152,-0.01394 -4.446237,-0.01445 -1.557975,0.0071 -3.122496,0.01336 -4.668498,0.230325 -2.182363,0.348425 -4.307028,0.939994 -6.448476,1.477548 -1.159282,0.2737 -1.5831,0.331147 -2.692021,0.760394 -0.418722,0.162081 -1.602891,0.799314 -1.229813,0.549491 1.157886,-0.775342 2.379941,-1.451451 3.595182,-2.13339 0.330986,-0.185735 -0.636037,0.415303 -0.939553,0.643172 -0.233294,0.175149 -0.445919,0.376256 -0.668878,0.564383 0,0 -5.149178,2.239013 -5.149178,2.239013 z"
       inkscape:connector-curvature="0" />
    <path
       style="opacity:1;fill:#3057c8;fill-opacity:1;fill-rule:evenodd;stroke-width:0.98001665;stroke-miterlimit:4;stroke-dasharray:none"
       id="path30"
       d="M -0.63145907,161.87918 C 3.607989,159.66559 8.01752,157.78969 12.381698,155.83725 c 3.359808,-1.51147 6.736908,-3.01091 10.203629,-4.26426 1.912102,-0.6698 3.877927,-1.01734 5.889168,-1.19027 2.714977,-0.16876 5.414685,-0.52028 8.128222,-0.73117 1.541404,-0.0333 3.17495,-0.26995 4.713081,-0.16513 0.936993,0.0639 2.022687,0.3209 2.935904,0.50916 2.421925,0.61889 4.74753,1.56941 6.887972,2.86256 1.15679,0.69888 2.176785,1.44434 3.279881,2.22039 2.380861,1.66602 4.44918,3.70753 6.628146,5.61569 0,0 -4.727514,2.93527 -4.727514,2.93527 v 0 c -2.12865,-1.92158 -4.16274,-3.95885 -6.521527,-5.60833 -1.127099,-0.79175 -2.049023,-1.47265 -3.240585,-2.17307 -2.123017,-1.24795 -4.435507,-2.14346 -6.833994,-2.6942 -1.178735,-0.2158 -1.69536,-0.35473 -2.887189,-0.40153 -1.563002,-0.0614 -3.135032,0.14301 -4.695148,0.19298 -2.714924,0.20734 -5.414891,0.55788 -8.130885,0.7477 -1.983786,0.21959 -3.924554,0.62258 -5.806645,1.303 -3.409366,1.25111 -6.745549,2.70015 -10.0536295,4.19545 -4.4246996,1.97124 -8.88899286,3.88461 -13.1471727,6.20112 0,0 4.36512913,-3.51343 4.36512913,-3.51343 z"
       inkscape:connector-curvature="0" />
    <path
       style="opacity:1;fill:#3057c8;fill-opacity:1;fill-rule:evenodd;stroke-width:0.98001665;stroke-miterlimit:4;stroke-dasharray:none"
       id="path32"
       d="m 157.49602,206.1162 c 1.18692,-5.2827 3.13807,-10.35117 5.08884,-15.38825 3.03511,-7.54415 6.23201,-15.05094 10.07711,-22.22465 0.68327,-1.27477 1.41563,-2.52262 2.12344,-3.78393 2.28676,-3.77005 4.70987,-7.51936 7.76719,-10.72417 1.65353,-1.7333 2.25288,-2.12001 4.08399,-3.59355 3.54068,-2.61973 7.41653,-4.70026 11.30843,-6.74843 0.51913,-0.2732 2.3506,-0.99044 2.93385,-1.22371 2.72243,-1.01692 5.62685,-1.14963 8.49812,-1.2519 2.07537,0.0275 4.17619,-0.21736 6.23876,0.11381 1.41171,0.22667 1.93462,0.4557 3.30701,0.89897 3.01842,1.38049 5.99267,2.89783 8.81505,4.64981 1.28075,0.79501 3.23661,2.13991 4.50238,2.99899 2.34777,1.58533 1.22017,0.83023 3.38138,2.26738 0,0 -4.6224,2.95456 -4.6224,2.95456 v 0 c -2.12149,-1.46672 -1.01418,-0.69779 -3.32103,-2.30811 -1.56383,-1.07481 -2.8391,-1.97987 -4.46597,-2.97652 -2.81581,-1.72503 -5.78372,-3.22203 -8.83066,-4.49071 -1.41223,-0.41847 -1.81362,-0.59917 -3.25674,-0.79177 -2.05429,-0.27417 -4.13897,-0.0429 -6.20082,-0.0536 -2.84455,0.12843 -5.71018,0.3281 -8.38344,1.40308 -0.46067,0.18817 -0.92442,0.36897 -1.38201,0.56451 -0.5092,0.21759 -1.95578,1.01388 -1.51804,0.67474 0.99244,-0.76891 2.15701,-1.28711 3.20354,-1.98061 0.50867,-0.33708 -1.06748,0.59231 -1.58832,0.91026 -1.07719,0.65755 -2.57158,1.68516 -3.59821,2.37807 -1.82716,1.41474 -2.49358,1.835 -4.14082,3.51166 -3.12133,3.17709 -5.6062,6.91901 -7.9476,10.68331 -0.72514,1.26176 -1.47707,2.5085 -2.17544,3.78529 -3.88919,7.11042 -7.05307,14.59665 -10.01437,22.13112 -1.71222,4.52807 -3.49175,9.09067 -4.59339,13.81779 -0.10434,0.44774 -0.16183,0.90512 -0.24274,1.35768 0,0 -5.04709,2.43883 -5.04709,2.43883 z"
       inkscape:connector-curvature="0" />
    <path
       style="opacity:1;fill:#3057c8;fill-opacity:1;fill-rule:evenodd;stroke-width:0.98001665;stroke-miterlimit:4;stroke-dasharray:none"
       id="path34"
       d="m 52.776537,173.85761 c 3.584009,-3.8564 7.618148,-7.2614 11.641685,-10.64448 3.399756,-2.7512 6.861279,-5.43084 10.403356,-7.99655 3.854521,-2.72486 7.990552,-5.05988 12.235537,-7.12021 1.180669,-0.628 2.481003,-0.84549 3.76247,-1.141 0.628907,-0.14504 1.247212,-0.33281 1.872446,-0.49294 1.86527,-0.45429 3.793101,-0.50981 5.684507,-0.77706 0.795739,-0.11243 2.727472,-0.51296 3.519182,-0.67227 2.90278,-0.7358 5.86568,-1.0106 8.84782,-1.11967 3.99422,-0.0564 7.99197,-0.14392 11.98585,-0.0379 1.89809,0.15114 3.84733,0.23189 5.69223,0.75203 0.2022,0.057 2.34775,0.7825 2.55272,0.85155 2.79978,0.85804 5.45397,2.12066 8.11481,3.32921 2.32247,0.89756 4.55182,1.99503 6.79059,3.07952 2.23838,0.99087 4.49437,1.9526 6.6499,3.116 1.35898,0.74829 2.52876,1.7697 3.73192,2.73369 2.22601,1.78351 -0.36953,-0.39571 1.82195,1.46747 1.82685,1.5548 3.64475,3.12011 5.48849,4.65497 0.72669,0.69067 1.48549,1.34378 2.2583,1.98158 0,0 -4.73076,2.95683 -4.73076,2.95683 v 0 c -0.76251,-0.64745 -1.50689,-1.31374 -2.24179,-1.99254 -1.83213,-1.54889 -3.65307,-3.11073 -5.48552,-4.65921 -1.74839,-1.46852 -3.52184,-2.93945 -5.49266,-4.10262 -2.15146,-1.14948 -4.40464,-2.09596 -6.62441,-3.10417 -2.23523,-1.07558 -4.47469,-2.13534 -6.76975,-3.0778 -2.64911,-1.20371 -5.29867,-2.44137 -8.09346,-3.27443 -0.76392,-0.25347 -1.74982,-0.59533 -2.53091,-0.79585 -1.81798,-0.4667 -3.71636,-0.57914 -5.58024,-0.70119 -3.99041,-0.0945 -7.98448,-0.0462 -11.97382,0.0768 -2.96218,0.15749 -5.9005,0.48624 -8.791391,1.1805 -1.184609,0.2294 -2.364563,0.47386 -3.560548,0.64015 -1.898664,0.26399 -3.825034,0.38183 -5.685901,0.8813 -1.873557,0.48429 -3.801229,0.81457 -5.541505,1.70507 -1.183397,0.58742 -1.232678,0.5991 -2.44039,1.25469 -0.446058,0.24214 -1.765297,1.00209 -1.331224,0.73907 7.452426,-4.5157 2.440432,-1.40743 0.97758,-0.3511 -3.599956,2.54271 -7.071757,5.26985 -10.528935,8.00215 -3.979379,3.31731 -7.967668,6.6636 -11.483012,10.48089 0,0 -5.145117,2.1776 -5.145117,2.1776 z"
       inkscape:connector-curvature="0" />
    <path
       style="opacity:1;fill:#3057c8;fill-opacity:1;fill-rule:evenodd;stroke-width:0.98001665;stroke-miterlimit:4;stroke-dasharray:none"
       id="path38"
       d="m 46.380397,232.79489 c 0.116779,1.94727 0.2193,3.89514 0.282556,5.84493 0.04206,1.75684 0.05179,3.51431 0.04918,5.27159 0.0037,1.60857 7.94e-4,3.21713 0.0062,4.8257 -0.05719,1.16545 0.143512,2.37099 -0.171051,3.51363 -0.06704,0.24351 -0.172466,0.47479 -0.258699,0.71218 -0.479338,1.03324 -0.785543,2.12718 -1.051086,3.23041 0,0 -5.033145,2.42265 -5.033145,2.42265 v 0 c 0.248113,-1.12692 0.530873,-2.25194 0.999744,-3.31107 0.09965,-0.20731 0.219334,-0.40614 0.298955,-0.62194 0.400518,-1.08556 0.164402,-2.27879 0.226592,-3.4043 0.0069,-1.61094 0.0069,-3.22188 0.0096,-4.83283 -0.0063,-1.75285 -1.7e-4,-3.50594 -0.04089,-5.25847 -0.04856,-1.93765 -0.11866,-3.87608 -0.297923,-5.80675 0,0 4.979895,-2.58573 4.979895,-2.58573 z"
       inkscape:connector-curvature="0" />
    <path
       style="opacity:1;fill:#3057c8;fill-opacity:1;fill-rule:evenodd;stroke-width:0.98001665;stroke-miterlimit:4;stroke-dasharray:none"
       id="path40"
       d="m 49.746899,224.12056 c -0.05875,1.87511 0.07231,3.7545 -0.143031,5.62122 -0.265572,1.49317 -1.254207,2.71094 -2.156949,3.88426 -1.48372,1.78315 -2.566241,3.83502 -3.752826,5.81477 -0.239083,0.39778 -0.478166,0.79556 -0.717246,1.19333 0,0 -5.057047,2.24144 -5.057047,2.24144 v 0 c 0.2385,-0.39843 0.476999,-0.79687 0.715497,-1.19531 1.203134,-1.96325 2.212228,-4.04981 3.670368,-5.84772 0.616781,-0.79322 1.197187,-1.57697 1.745131,-2.41983 0.11756,-0.18083 0.259321,-0.34912 0.34685,-0.54625 0.09223,-0.20772 0.124574,-0.43716 0.186862,-0.65574 0.311291,-1.83074 0.153067,-3.69358 0.16264,-5.54267 0,0 4.999751,-2.5475 4.999751,-2.5475 z"
       inkscape:connector-curvature="0" />
    <path
       style="opacity:1;fill:#3057c8;fill-opacity:1;fill-rule:evenodd;stroke-width:0.98001665;stroke-miterlimit:4;stroke-dasharray:none"
       id="path42"
       d="m 37.703326,231.39211 c -0.991032,-1.61282 -1.65612,-3.3893 -2.068304,-5.23013 -0.177017,-1.03656 -0.101777,-0.53062 -0.229148,-1.5173 0,0 4.958319,-2.60011 4.958319,-2.60011 v 0 c 0.102301,0.96165 0.03963,0.4692 0.191367,1.47693 0.370671,1.78352 0.977189,3.51875 1.995043,5.04409 0,0 -4.847277,2.82652 -4.847277,2.82652 z"
       inkscape:connector-curvature="0" />
    <path
       style="opacity:1;fill:#3057c8;fill-opacity:1;fill-rule:evenodd;stroke-width:0.98001665;stroke-miterlimit:4;stroke-dasharray:none"
       id="path44"
       d="m 48.204688,240.93037 c 1.896123,1.12333 3.509267,2.67305 5.039905,4.24399 0.902317,1.02919 1.605558,2.21257 2.314059,3.3786 0,0 -4.846539,2.80999 -4.846539,2.80999 v 0 c -0.676463,-1.13439 -1.34729,-2.2878 -2.212229,-3.29094 -1.491777,-1.54477 -3.086365,-3.05665 -4.995611,-4.07293 0,0 4.700415,-3.06871 4.700415,-3.06871 z"
       inkscape:connector-curvature="0" />
    <path
       style="opacity:1;fill:#3057c8;fill-opacity:1;fill-rule:evenodd;stroke-width:0.98001665;stroke-miterlimit:4;stroke-dasharray:none"
       id="path46"
       d="m 91.634206,227.51776 c -0.32779,1.7868 -0.489747,3.59727 -0.604941,5.40837 -0.08408,1.51151 -0.09175,3.02584 -0.09173,4.53926 -0.0013,1.35197 7.94e-4,2.70397 0.0036,4.05594 5.29e-4,0.87875 -2.17e-4,0.44505 0.0024,1.3011 0,0 -4.995485,2.54573 -4.995485,2.54573 v 0 c 0.0016,-0.85738 0.0013,-0.42329 5.3e-4,-1.30227 9.5e-5,-1.35285 -0.0036,-2.7057 -0.0031,-4.05855 0.0084,-1.52554 0.01297,-3.05169 0.08841,-4.57576 0.116419,-1.82228 0.296987,-3.63978 0.556017,-5.44758 0,0 5.0445,-2.46624 5.0445,-2.46624 z"
       inkscape:connector-curvature="0" />
    <path
       style="opacity:1;fill:#3057c8;fill-opacity:1;fill-rule:evenodd;stroke-width:0.98001665;stroke-miterlimit:4;stroke-dasharray:none"
       id="path50"
       d="m 87.404061,244.94478 c -0.68248,1.91826 -1.235681,3.8739 -1.9332,5.78768 -0.502531,1.451 -0.835885,2.94322 -1.379553,4.38065 0,0 -5.07043,2.34233 -5.07043,2.34233 v 0 c 0.613249,-1.4167 0.921142,-2.90533 1.395069,-4.36967 0.715856,-1.89567 1.29936,-3.82335 1.907574,-5.75498 0,0 5.08054,-2.38601 5.08054,-2.38601 z"
       inkscape:connector-curvature="0" />
    <path
       style="opacity:1;fill:#3057c8;fill-opacity:1;fill-rule:evenodd;stroke-width:0.98001665;stroke-miterlimit:4;stroke-dasharray:none"
       id="path52"
       d="m 90.946302,239.99556 c -0.04366,2.24849 -0.02858,4.49759 -0.0195,6.74634 -0.115742,1.59816 0.448792,3.07444 1.00493,4.53752 0.597109,1.14808 0.916033,2.39341 1.231453,3.63964 0.125614,0.6208 0.191934,1.25269 0.464984,1.83238 0.0617,0.13098 0.115012,0.27546 0.221364,0.3737 0.03517,0.0325 0.179961,-0.0641 0.137231,-0.0424 -1.579001,0.79864 -3.16521,1.58295 -4.747815,2.37442 0,0 5.138819,-2.30549 5.138819,-2.30549 v 0 c -1.701895,1.01237 -3.345513,2.12985 -5.105683,3.03712 -0.114964,0.0593 -0.214077,-0.15192 -0.292965,-0.25441 -0.51177,-0.66492 -0.592172,-1.55815 -0.749559,-2.34809 -0.299681,-1.22781 -0.605986,-2.45446 -1.192202,-3.58394 -0.581835,-1.51933 -1.17897,-3.07526 -1.07129,-4.73278 0.009,-2.24212 0.02439,-4.48461 -0.0195,-6.72646 0,0 4.999752,-2.5475 4.999752,-2.5475 z"
       inkscape:connector-curvature="0" />
    <path
       style="opacity:1;fill:#3057c8;fill-opacity:1;fill-rule:evenodd;stroke-width:0.98001665;stroke-miterlimit:4;stroke-dasharray:none"
       id="path60"
       d="m 84.742236,229.31014 c -0.325575,-1.61633 -0.901012,-3.19628 -1.551022,-4.71164 -0.438031,-1.04434 -1.228569,-1.79898 -2.085224,-2.5008 -0.430638,-0.4034 -0.850336,-0.8147 -1.293778,-1.20405 0,0 4.769681,-2.95981 4.769681,-2.95981 v 0 c 0.431282,0.39197 0.846728,0.79982 1.283539,1.18569 0.917096,0.76803 1.736902,1.61494 2.206283,2.73933 0.660678,1.5613 1.218354,3.18563 1.630196,4.82808 0,0 -4.959675,2.6232 -4.959675,2.6232 z"
       inkscape:connector-curvature="0" />
    <path
       style="opacity:1;fill:#3057c8;fill-opacity:1;fill-rule:evenodd;stroke-width:0.98001665;stroke-miterlimit:4;stroke-dasharray:none"
       id="path62"
       d="m 94.311083,225.17435 c 2.213885,-0.0676 4.359277,-0.81081 6.410817,-1.59976 1.2714,-0.53207 2.51689,-1.07979 3.71351,-1.76509 0,0 -4.34412,3.50227 -4.34412,3.50227 v 0 c -1.212795,0.63719 -2.466632,1.17585 -3.739939,1.68147 -2.128391,0.75872 -4.347604,1.52984 -6.636861,1.40611 0,0 4.596593,-3.225 4.596593,-3.225 z"
       inkscape:connector-curvature="0" />
    <path
       style="opacity:1;fill:#3057c8;fill-opacity:1;fill-rule:evenodd;stroke-width:0.98001665;stroke-miterlimit:4;stroke-dasharray:none"
       id="path64"
       d="m 115.12877,247.66734 c 0.4892,-3.9176 0.57726,-7.87287 0.66564,-11.81579 0.002,-2.94036 0.12921,-5.88709 -0.006,-8.82597 0,0 4.95539,-2.55315 4.95539,-2.55315 v 0 c 0.13216,2.97026 -0.098,5.94825 -0.0955,8.91961 -0.0897,3.93547 -0.17963,7.87315 -0.49531,11.79852 0,0 -5.0245,2.47678 -5.0245,2.47678 z"
       inkscape:connector-curvature="0" />
    <path
       style="opacity:1;fill:#3057c8;fill-opacity:1;fill-rule:evenodd;stroke-width:0.98001665;stroke-miterlimit:4;stroke-dasharray:none"
       id="path66"
       d="m 124.06585,242.35464 c 1.11269,1.68999 2.32924,3.30861 3.42257,5.01139 0.69335,1.23588 1.54358,2.34739 2.49471,3.39261 0,0 -4.7965,2.90488 -4.7965,2.90488 v 0 c -0.95976,-1.07686 -1.82287,-2.21932 -2.51936,-3.48713 -1.07023,-1.70823 -2.26338,-3.33584 -3.43943,-4.97203 0,0 4.83801,-2.84972 4.83801,-2.84972 z"
       inkscape:connector-curvature="0" />
    <path
       style="opacity:1;fill:#3057c8;fill-opacity:1;fill-rule:evenodd;stroke-width:0.98001665;stroke-miterlimit:4;stroke-dasharray:none"
       id="path68"
       d="m 115.62221,245.86926 c -1.14947,2.61648 -2.36771,5.19907 -3.67788,7.7385 -1.65445,3.39426 -1.64363,3.6404 -6.60914,5.39574 -0.27334,0.0966 -0.26585,-0.5153 -0.39877,-0.77294 0,0 4.88387,-2.76862 4.88387,-2.76862 v 0 c 0.66447,1.89947 0.2293,0.40518 -4.44857,3.00243 -0.19747,0.10963 0.33166,-0.3124 0.45693,-0.50035 0.23251,-0.34883 0.90714,-1.75714 1.06593,-2.08048 1.31063,-2.5163 2.6003,-5.04979 3.63594,-7.69405 0,0 5.09169,-2.32023 5.09169,-2.32023 z"
       inkscape:connector-curvature="0" />
    <path
       style="opacity:1;fill:#3057c8;fill-opacity:1;fill-rule:evenodd;stroke-width:0.98001665;stroke-miterlimit:4;stroke-dasharray:none"
       id="path70"
       d="m 116.83513,223.18092 c -0.37456,-1.82583 -1.04808,-3.57669 -1.69743,-5.31927 0,0 4.85968,-2.69652 4.85968,-2.69652 v 0 c 0.64703,1.77184 1.32648,3.54077 1.77716,5.37495 0,0 -4.93941,2.64084 -4.93941,2.64084 z"
       inkscape:connector-curvature="0" />
    <path
       style="opacity:1;fill:#3057c8;fill-opacity:1;fill-rule:evenodd;stroke-width:0.98001665;stroke-miterlimit:4;stroke-dasharray:none"
       id="path72"
       d="m 116.88149,230.24393 c -0.54294,1.88257 -0.97331,3.78278 -1.75614,5.58499 -0.71415,1.265 -1.58338,2.4632 -2.57948,3.52229 0,0 -5.19082,2.12502 -5.19082,2.12502 v 0 c 1.11669,-0.88707 1.87162,-2.18168 2.69577,-3.32846 0.83445,-1.75897 1.3127,-3.61829 1.75956,-5.50785 0,0 5.07111,-2.39599 5.07111,-2.39599 z"
       inkscape:connector-curvature="0" />
    <path
       style="opacity:1;fill:#3057c8;fill-opacity:1;fill-rule:evenodd;stroke-width:0.98001665;stroke-miterlimit:4;stroke-dasharray:none"
       id="path74"
       d="m 115.3906,229.29872 c 2.47282,-1.64198 0.43553,-0.31088 6.28743,-3.65787 0.28517,-0.1631 1.14036,-0.65297 0.85526,-0.48975 -1.31665,0.75381 -2.62476,1.52275 -3.94993,2.26149 -0.25649,0.14299 0.49788,-0.31167 0.74283,-0.47364 0.22335,-0.14768 0.44124,-0.30346 0.66186,-0.4552 1.28089,-0.83552 2.20349,-2.03689 3.06199,-3.27727 0.72803,-0.97676 1.66769,-1.75995 2.581,-2.55481 0,0 5.19466,-2.10832 5.19466,-2.10832 v 0 c -0.90787,0.78295 -1.84498,1.54011 -2.65406,2.42851 -0.85208,1.26951 -1.71036,2.57129 -2.9837,3.46197 -2.23617,1.61181 -4.51084,2.78664 -6.988,4.21935 -0.28625,0.16556 -1.15086,0.65173 -0.86692,0.48224 1.3092,-0.78149 2.62255,-1.55616 3.94303,-2.31843 0.22675,-0.1309 -0.44081,0.28262 -0.66121,0.42393 0,0 -5.22424,2.0578 -5.22424,2.0578 z"
       inkscape:connector-curvature="0" />
    <path
       style="opacity:1;fill:#3057c8;fill-opacity:1;fill-rule:evenodd;stroke-width:0.98001665;stroke-miterlimit:4;stroke-dasharray:none"
       id="path78"
       d="m 89.65648,222.83564 c -0.12595,-1.00001 -0.239427,-2.0015 -0.351909,-3.00309 0,0 4.932529,-2.58189 4.932529,-2.58189 v 0 c 0.107402,0.99194 0.212407,1.98474 0.377949,2.96918 0,0 -4.958569,2.6158 -4.958569,2.6158 z"
       inkscape:connector-curvature="0" />
    <path
       style="opacity:1;fill:#3057c8;fill-opacity:1;fill-rule:evenodd;stroke-width:0.98001665;stroke-miterlimit:4;stroke-dasharray:none"
       id="path80"
       d="m 151.07852,227.92881 c 0.11464,1.97657 0.21736,3.9537 0.28458,5.9325 0.0533,1.77584 0.0501,3.55277 0.0409,5.32919 -0.002,1.90006 0.002,3.80013 0.0113,5.70018 0.003,1.46785 0.004,2.93563 -0.003,4.40347 5.3e-4,1.06613 0.0127,0.54028 -0.0348,1.57759 0,0 -5.00008,2.51005 -5.00008,2.51005 v 0 c 0.0753,-1.00957 0.0551,-0.49276 0.0556,-1.5506 -0.007,-1.4672 -0.006,-2.93433 -0.001,-4.40155 0.0106,-1.90415 0.0177,-3.80836 0.0147,-5.71255 -0.0124,-1.76906 -0.0125,-3.53828 -0.0492,-5.30708 -0.0487,-1.96875 -0.11906,-3.93818 -0.29589,-5.90025 0,0 4.97733,-2.58095 4.97733,-2.58095 z"
       inkscape:connector-curvature="0" />
    <path
       style="opacity:1;fill:#3057c8;fill-opacity:1;fill-rule:evenodd;stroke-width:0.98001665;stroke-miterlimit:4;stroke-dasharray:none"
       id="path82"
       d="m 146.67693,253.26023 c -0.87506,1.50789 -1.75447,3.01654 -2.50938,4.58909 -0.32329,0.97496 -0.77984,1.88822 -1.27756,2.78299 0,0 -5.10468,2.27209 -5.10468,2.27209 v 0 c 0.52034,-0.86353 1.0325,-1.74993 1.28642,-2.73442 0.72968,-1.58797 1.63155,-3.08942 2.4826,-4.61412 0,0 5.1226,-2.29563 5.1226,-2.29563 z"
       inkscape:connector-curvature="0" />
    <path
       style="opacity:1;fill:#3057c8;fill-opacity:1;fill-rule:evenodd;stroke-width:0.98001665;stroke-miterlimit:4;stroke-dasharray:none"
       id="path84"
       d="m 153.69035,252.46877 c -0.004,1.68265 -0.0578,3.36886 0.0301,5.04991 -0.0171,1.32934 0.47996,2.49008 1.03682,3.66421 1.07669,1.96019 0.36046,0.34305 -4.74085,2.38279 0,0 4.9787,-2.56484 4.9787,-2.56484 v 0 c -5.03079,3.46731 -3.99099,5.13909 -5.11929,2.94577 -0.57618,-1.23715 -1.14212,-2.46062 -1.12497,-3.85823 -0.11337,-1.68785 -0.003,-3.38166 -0.0603,-5.07211 0,0 4.99975,-2.5475 4.99975,-2.5475 z"
       inkscape:connector-curvature="0" />
    <path
       style="opacity:1;fill:#3057c8;fill-opacity:1;fill-rule:evenodd;stroke-width:0.98001665;stroke-miterlimit:4;stroke-dasharray:none"
       id="path86"
       d="m 140.66921,238.61652 c 1.08788,-1.59504 2.01514,-3.07546 3.63068,-4.18024 0.97491,-0.48371 4.52689,-3.75271 6.91664,-2.96436 1.02315,0.33752 1.59854,1.21682 2.21825,2.02541 1.18093,1.68925 2.08523,3.5455 3.00674,5.38269 0.6555,0.99875 1.35585,1.95136 1.94261,2.99841 0,0 -4.85828,2.7975 -4.85828,2.7975 v 0 c -0.59361,-1.05252 -1.32609,-1.99722 -1.9468,-3.02901 -0.88984,-1.80935 -1.72308,-3.6612 -2.90808,-5.3039 -0.43747,-0.52746 -0.76593,-1.05072 -1.37182,-1.39202 -1.95468,-1.10111 -6.26509,2.54933 2.21881,-2.53346 -0.52689,0.2875 -0.8714,0.43799 -1.32879,0.84904 -0.9731,0.87452 -1.62508,2.05758 -2.38498,3.10322 0,0 -5.13498,2.24672 -5.13498,2.24672 z"
       inkscape:connector-curvature="0" />
    <path
       style="opacity:1;fill:#3057c8;fill-opacity:1;fill-rule:evenodd;stroke-width:0.98001665;stroke-miterlimit:4;stroke-dasharray:none"
       id="path88"
       d="m 147.45124,228.19437 c -0.39056,-1.77031 -0.60113,-3.57333 -0.78853,-5.37436 0,0 4.93081,-2.57395 4.93081,-2.57395 v 0 c 0.16662,1.77525 0.35286,3.5574 0.79706,5.28881 0,0 -4.93934,2.6595 -4.93934,2.6595 z"
       inkscape:connector-curvature="0" />
  </g>
</svg>
