<svg xmlns="http://www.w3.org/2000/svg" viewBox="0 0 500 500" stroke-miterlimit="6" stroke-linejoin="round" stroke-linecap="round" stroke-width="37" xmlns:v="https://vecta.io/nano"><path d="M484.246 189.557c0 16.831-9.363 35.773-22.32 48.835-12.397 12.497-31.261 24.337-52.115 33.229-40.852 17.418-98.5 28.425-159.811 28.425s-118.959-11.007-159.811-28.425c-20.854-8.892-39.718-20.732-52.115-33.229-12.957-13.062-22.32-32.004-22.32-48.835s9.363-35.773 22.32-48.835c12.397-12.497 31.261-24.337 52.115-33.229 19.831-8.455 43.62-15.4 69.865-20.308-9.932 12.242-16.785 26.583-19.556 42.13-12.951 3.481-24.928 7.579-35.798 12.214-18.188 7.755-30.92 15.737-40.358 25.251-8.877 8.948-11.588 14.206-11.588 22.777s2.711 13.829 11.588 22.777c9.438 9.514 22.17 17.496 40.358 25.251 37.232 15.875 87.458 25.461 145.3 25.461s108.068-9.586 145.3-25.461c18.188-7.755 30.92-15.737 40.358-25.251 8.877-8.948 11.588-14.206 11.588-22.777s-2.711-13.829-11.588-22.777c-9.438-9.514-22.17-17.496-40.358-25.251-10.604-4.521-22.262-8.533-34.85-11.958-2.727-15.56-9.542-29.92-19.44-42.186 25.824 4.896 49.238 11.767 68.801 20.108 20.854 8.892 39.718 20.732 52.115 33.229 12.957 13.062 22.32 32.004 22.32 48.835z" stroke-width="0"/><path d="M250.004 45.911c62.019 0 112.452 43.706 113.786 98.066-1.42 71.723-229.098 77.041-227.572 0 1.334-54.36 51.767-98.066 113.786-98.066z" fill="none"/><path d="M443.439 383.412l-62.4-101.024m-262.078 0l-62.4 101.024"/><path d="M199.415 334.556l.065 48.678m104.355-48.457l.065 48.678m-51.999 28.118l.065 48.678"/></svg>